# File created by Blade
# Date/Time:  Tue Jan 27 19:32:37 2015
# Frame Rate: 120.000 fps
#------------------------------------------------------
:FULLY-SPECIFIED
:DEGREES
3910
root 2.625016 32.263177 0.284449 -3.908338 -14.554651 -1.621945
Spine 2.082156 -16.361973 -1.571563
Head 22.259907 5.992791 7.289433
LeftShoulder -13.133364 0.821777 29.347584
LeftArm -4.282354 38.925660 -107.103464
LeftForeArm 3.582701 -0.000000 15.929536
LeftHand 10.384589 -0.000000 -5.169152
LeftHandThumb1 -26.253704 0.000000 33.147579
RightShoulder -31.725650 -24.006769 -29.378862
RightArm -9.575494 80.791795 61.211427
RightForeArm 18.886125 -0.000000 132.798895
RightHand 29.609769 -0.000000 -34.730621
RightHandThumb1 -24.326973 -0.000000 -32.862282
LeftUpLeg 15.509319 14.320647 3.271751
LeftLeg -0.041386 -0.000000 0.000000
LeftFoot -21.841299 18.569636 -25.682546
LeftToeBase 16.398792 -0.000000 -0.000000
RightUpLeg 8.343330 4.453618 5.547055
RightLeg 2.315150 -0.000000 -0.000000
RightFoot -11.566073 -12.652626 12.953420
RightToeBase 12.331364 -0.000000 -0.000000
3911
root 2.621703 32.262447 0.287422 -3.956156 -14.618023 -1.623615
Spine 2.088135 -16.301912 -1.563938
Head 22.214774 6.029683 7.299535
LeftShoulder -13.110894 0.778352 29.351396
LeftArm -4.276081 39.054682 -107.082168
LeftForeArm 3.542288 -0.000000 15.836846
LeftHand 10.383637 -0.000000 -5.349533
LeftHandThumb1 -26.253704 0.000000 33.147579
RightShoulder -31.719283 -24.102839 -29.414623
RightArm -9.426358 80.692047 61.271431
RightForeArm 18.564606 -0.000000 132.940139
RightHand 29.635313 -0.000000 -34.564314
RightHandThumb1 -24.326973 -0.000000 -32.862282
LeftUpLeg 15.567380 14.303677 3.279872
LeftLeg -0.033701 -0.000000 0.000000
LeftFoot -21.868066 18.620348 -25.720918
LeftToeBase 16.361011 -0.000000 -0.000000
RightUpLeg 8.377461 4.515936 5.561764
RightLeg 2.352554 -0.000000 -0.000000
RightFoot -11.587020 -12.650000 12.949822
RightToeBase 12.352216 -0.000000 -0.000000
3912
root 2.618052 32.262433 0.290465 -4.002338 -14.689718 -1.626727
Spine 2.095137 -16.268900 -1.561053
Head 22.171212 6.085869 7.331339
LeftShoulder -13.138851 0.781152 29.338801
LeftArm -4.227222 39.247886 -107.027931
LeftForeArm 3.537710 -0.000000 15.747778
LeftHand 10.260923 0.000000 -5.145093
LeftHandThumb1 -26.253704 0.000000 33.147579
RightShoulder -31.694719 -24.153946 -29.474415
RightArm -9.229802 80.500651 61.399109
RightForeArm 18.770122 -0.000000 133.130494
RightHand 29.622996 -0.000000 -34.696363
RightHandThumb1 -24.326973 -0.000000 -32.862282
LeftUpLeg 15.611562 14.285200 3.288658
LeftLeg 0.011923 -0.000000 -0.000000
LeftFoot -21.912179 18.604187 -25.853225
LeftToeBase 16.151413 -0.000000 -0.000000
RightUpLeg 8.407321 4.544370 5.575066
RightLeg 2.390379 -0.000000 -0.000000
RightFoot -11.591983 -12.631369 12.935805
RightToeBase 12.321327 -0.000000 -0.000000
3913
root 2.615150 32.262630 0.293228 -4.044388 -14.757678 -1.631993
Spine 2.093685 -16.240521 -1.547238
Head 22.139236 6.091604 7.336462
LeftShoulder -13.175727 0.807247 29.303606
LeftArm -4.145966 39.405701 -106.939889
LeftForeArm 3.558550 0.000000 15.657939
LeftHand 10.243004 -0.000000 -5.162073
LeftHandThumb1 -26.253704 0.000000 33.147579
RightShoulder -31.697172 -24.257809 -29.535722
RightArm -8.637293 80.403391 61.998449
RightForeArm 18.619742 -0.000000 133.203830
RightHand 29.564608 -0.000000 -34.941626
RightHandThumb1 -24.326973 -0.000000 -32.862282
LeftUpLeg 15.640731 14.247877 3.287676
LeftLeg 0.069197 -0.000000 -0.000000
LeftFoot -22.008474 18.741766 -25.833887
LeftToeBase 16.327826 -0.000000 -0.000000
RightUpLeg 8.435232 4.556700 5.583320
RightLeg 2.422077 -0.000000 -0.000000
RightFoot -11.582285 -12.583340 12.922108
RightToeBase 12.260064 -0.000000 -0.000000
3914
root 2.610582 32.262203 0.295716 -4.092991 -14.834769 -1.637914
Spine 2.112655 -16.185612 -1.554787
Head 22.111581 6.133264 7.351825
LeftShoulder -13.217399 0.802206 29.292476
LeftArm -4.094165 39.540153 -106.873897
LeftForeArm 3.605939 -0.000000 15.586310
LeftHand 10.179176 -0.000000 -5.068909
LeftHandThumb1 -26.253704 0.000000 33.147579
RightShoulder -31.679393 -24.296701 -29.583483
RightArm -8.540289 80.218712 62.099100
RightForeArm 18.791601 -0.000000 133.344070
RightHand 29.429430 0.000000 -35.028546
RightHandThumb1 -24.326973 -0.000000 -32.862282
LeftUpLeg 15.681046 14.258167 3.306837
LeftLeg 0.130980 -0.000000 -0.000000
LeftFoot -22.045012 18.776365 -25.846209
LeftToeBase 16.227647 -0.000000 -0.000000
RightUpLeg 8.464917 4.597188 5.603146
RightLeg 2.463916 -0.000000 -0.000000
RightFoot -11.602913 -12.588497 12.879636
RightToeBase 12.111958 -0.000000 -0.000000
3915
root 2.606467 32.261848 0.296569 -4.134539 -14.909907 -1.642546
Spine 2.126588 -16.115240 -1.561473
Head 22.078801 6.091869 7.351910
LeftShoulder -13.244551 0.792122 29.282588
LeftArm -4.045194 39.599053 -106.799664
LeftForeArm 3.717412 -0.000000 15.537851
LeftHand 10.113436 -0.000000 -5.040412
LeftHandThumb1 -26.253704 0.000000 33.147579
RightShoulder -31.661792 -24.317109 -29.642044
RightArm -8.762689 80.078772 61.934701
RightForeArm 18.731029 0.000000 133.424019
RightHand 29.403052 -0.000000 -34.852023
RightHandThumb1 -24.326973 -0.000000 -32.862282
LeftUpLeg 15.707027 14.261995 3.319494
LeftLeg 0.209549 -0.000000 -0.000000
LeftFoot -22.126085 18.799966 -25.889777
LeftToeBase 16.249509 -0.000000 -0.000000
RightUpLeg 8.486548 4.631667 5.617532
RightLeg 2.505219 -0.000000 -0.000000
RightFoot -11.597360 -12.535768 12.882676
RightToeBase 12.299249 -0.000000 -0.000000
3916
root 2.603890 32.261443 0.296943 -4.179516 -14.974533 -1.646700
Spine 2.156031 -16.050789 -1.570337
Head 22.030891 6.029457 7.335104
LeftShoulder -13.314718 0.799952 29.264120
LeftArm -3.947594 39.564693 -106.689572
LeftForeArm 3.809272 0.000000 15.462106
LeftHand 10.245959 -0.000000 -5.263809
LeftHandThumb1 -26.253704 0.000000 33.147579
RightShoulder -31.644529 -24.311032 -29.672451
RightArm -9.128792 79.949481 61.630803
RightForeArm 18.767707 -0.000000 133.519724
RightHand 29.525766 -0.000000 -34.060860
RightHandThumb1 -24.326973 -0.000000 -32.862282
LeftUpLeg 15.734017 14.304046 3.343569
LeftLeg 0.271787 -0.000000 -0.000000
LeftFoot -22.126840 18.795198 -25.882194
LeftToeBase 16.180414 -0.000000 -0.000000
RightUpLeg 8.514376 4.667916 5.632194
RightLeg 2.533844 -0.000000 -0.000000
RightFoot -11.595982 -12.541021 12.861884
RightToeBase 12.062137 -0.000000 -0.000000
3917
root 2.600987 32.260876 0.297071 -4.220724 -15.030499 -1.650688
Spine 2.184367 -15.975427 -1.579021
Head 21.974041 5.953134 7.309775
LeftShoulder -13.319555 0.786444 29.243837
LeftArm -3.909220 39.474238 -106.611258
LeftForeArm 3.941444 -0.000000 15.438769
LeftHand 10.310166 -0.000000 -5.090598
LeftHandThumb1 -26.253704 0.000000 33.147579
RightShoulder -31.636052 -24.310247 -29.696784
RightArm -9.579844 79.857659 61.250313
RightForeArm 18.720034 -0.000000 133.610309
RightHand 29.508968 -0.000000 -34.081451
RightHandThumb1 -24.326973 -0.000000 -32.862282
LeftUpLeg 15.755828 14.320011 3.360236
LeftLeg 0.333761 -0.000000 -0.000000
LeftFoot -22.212501 18.813332 -25.943076
LeftToeBase 16.256615 -0.000000 -0.000000
RightUpLeg 8.541042 4.692542 5.643770
RightLeg 2.563665 -0.000000 -0.000000
RightFoot -11.600739 -12.512999 12.835078
RightToeBase 12.024714 -0.000000 -0.000000
3918
root 2.598456 32.261288 0.294641 -4.237578 -15.066753 -1.651802
Spine 2.194560 -15.930599 -1.588700
Head 21.923392 5.888722 7.272936
LeftShoulder -13.372972 0.795289 29.220271
LeftArm -3.848857 39.411502 -106.518473
LeftForeArm 3.976522 -0.000000 15.422129
LeftHand 10.316956 0.000000 -5.091182
LeftHandThumb1 -26.253704 0.000000 33.147579
RightShoulder -31.637410 -24.283718 -29.679644
RightArm -9.959494 79.894726 60.927269
RightForeArm 18.577697 0.000000 133.693254
RightHand 29.482636 -0.000000 -33.997618
RightHandThumb1 -24.326973 -0.000000 -32.862282
LeftUpLeg 15.734915 14.335666 3.369976
LeftLeg 0.421401 -0.000000 -0.000000
LeftFoot -22.233242 18.794850 -25.964316
LeftToeBase 16.186018 -0.000000 -0.000000
RightUpLeg 8.539776 4.684846 5.647723
RightLeg 2.589683 -0.000000 -0.000000
RightFoot -11.596555 -12.470024 12.812491
RightToeBase 12.332129 -0.000000 -0.000000
3919
root 2.595981 32.261059 0.293138 -4.257065 -15.098532 -1.659489
Spine 2.209789 -15.861358 -1.594968
Head 21.894362 5.839985 7.265319
LeftShoulder -13.406277 0.783986 29.214830
LeftArm -3.820691 39.326302 -106.456809
LeftForeArm 4.021076 -0.000000 15.427043
LeftHand 10.199492 0.000000 -4.774031
LeftHandThumb1 -26.253704 0.000000 33.147579
RightShoulder -31.659611 -24.242164 -29.644102
RightArm -10.241989 79.916086 60.670671
RightForeArm 18.573861 -0.000000 133.772238
RightHand 29.579328 -0.000000 -34.294985
RightHandThumb1 -24.326973 -0.000000 -32.862282
LeftUpLeg 15.730537 14.341155 3.384630
LeftLeg 0.481878 -0.000000 -0.000000
LeftFoot -22.297721 18.811665 -25.989660
LeftToeBase 16.249269 -0.000000 -0.000000
RightUpLeg 8.551346 4.667164 5.654579
RightLeg 2.597996 -0.000000 -0.000000
RightFoot -11.584114 -12.417446 12.833234
RightToeBase 12.283567 -0.000000 -0.000000
3920
root 2.594280 32.260642 0.290554 -4.273085 -15.117765 -1.657600
Spine 2.222987 -15.793521 -1.608054
Head 21.863827 5.808634 7.247128
LeftShoulder -13.435605 0.732048 29.226974
LeftArm -3.832445 39.201178 -106.433002
LeftForeArm 4.026022 -0.000000 15.407277
LeftHand 10.202546 -0.000000 -4.708049
LeftHandThumb1 -26.253704 0.000000 33.147579
RightShoulder -31.706124 -24.233895 -29.590320
RightArm -10.226011 80.178243 60.735666
RightForeArm 18.464172 -0.000000 133.808790
RightHand 29.575233 -0.000000 -34.909756
RightHandThumb1 -24.326973 -0.000000 -32.862282
LeftUpLeg 15.721527 14.355170 3.390129
LeftLeg 0.531625 -0.000000 -0.000000
LeftFoot -22.326331 18.806885 -26.002831
LeftToeBase 16.229110 -0.000000 -0.000000
RightUpLeg 8.554205 4.660134 5.655838
RightLeg 2.615310 -0.000000 -0.000000
RightFoot -11.578677 -12.407352 12.800819
RightToeBase 12.271775 -0.000000 -0.000000
